HIERARCHY
ROOT hip
{
  OFFSET 0.0 0.0 0.0
  CHANNELS 6 Xposition Yposition Zposition Zrotation Yrotation Xrotation
  JOINT abdomen
  {
    OFFSET 0.0 20.6881 -0.73152
    CHANNELS 3 Zrotation Xrotation Yrotation
    JOINT chest
    {
      OFFSET 0.0 11.7043 -0.48768
      CHANNELS 3 Zrotation Xrotation Yrotation
      JOINT neck
      {
        OFFSET 0.0 22.1894 -2.19456
        CHANNELS 3 Zrotation Xrotation Yrotation
        JOINT head
        {
          OFFSET -0.24384 7.07133 1.2192
          CHANNELS 3 Zrotation Xrotation Yrotation
          JOINT leftEye
          {
            OFFSET 4.14528 8.04674 8.04672
            CHANNELS 3 Zrotation Xrotation Yrotation
            End Site
            {
              OFFSET 1.0 0.0 0.0
            }
          }
          JOINT rightEye
          {
            OFFSET -3.6576 8.04674 8.04672
            CHANNELS 3 Zrotation Xrotation Yrotation
            End Site
            {
              OFFSET 1.0 0.0 0.0
            }
          }
        }
      }
      JOINT rCollar
      {
        OFFSET -2.68224 19.2634 -4.8768
        CHANNELS 3 Zrotation Xrotation Yrotation
        JOINT rShldr
        {
          OFFSET -8.77824 -1.95073 1.46304
          CHANNELS 3 Zrotation Xrotation Yrotation
          JOINT rForeArm
          {
            OFFSET -28.1742 -1.7115 0.48768
            CHANNELS 3 Zrotation Xrotation Yrotation
            JOINT rHand
            {
              OFFSET -22.5879 0.773209 7.07136
              CHANNELS 3 Zrotation Xrotation Yrotation
              JOINT rThumb1
              {
                OFFSET -1.2192 -0.487915 3.41376
                CHANNELS 3 Zrotation Xrotation Yrotation
                JOINT rThumb2
                {
                  OFFSET -3.37035 -0.52449 3.41376
                  CHANNELS 3 Zrotation Xrotation Yrotation
                  End Site
                  {
                    OFFSET -1.78271 -1.18214 1.43049
                  }
                }
              }
              JOINT rIndex1
              {
                OFFSET -7.75947 0.938293 5.60832
                CHANNELS 3 Zrotation Xrotation Yrotation
                JOINT rIndex2
                {
                  OFFSET -2.54057 -0.884171 1.56538
                  CHANNELS 3 Zrotation Xrotation Yrotation
                  End Site
                  {
                    OFFSET -1.62519 -0.234802 1.16502
                  }
                }
              }
              JOINT rMid1
              {
                OFFSET -8.24714 1.18213 3.41376
                CHANNELS 3 Zrotation Xrotation Yrotation
                JOINT rMid2
                {
                  OFFSET -3.10165 -0.590103 1.0647
                  CHANNELS 3 Zrotation Xrotation Yrotation
                  End Site
                  {
                    OFFSET -2.48547 -0.328903 0.83742
                  }
                }
              }
              JOINT rRing1
              {
                OFFSET -8.82822 0.546677 1.51678
                CHANNELS 3 Zrotation Xrotation Yrotation
                JOINT rRing2
                {
                  OFFSET -2.60934 -0.819778 -0.0198488
                  CHANNELS 3 Zrotation Xrotation Yrotation
                  End Site
                  {
                    OFFSET -2.33842 -0.294052 0.168128
                  }
                }
              }
              JOINT rPinky1
              {
                OFFSET -8.27202 -0.0477905 -0.4584
                CHANNELS 3 Zrotation Xrotation Yrotation
                JOINT rPinky2
                {
                  OFFSET -1.82734 -0.647385 -0.700984
                  CHANNELS 3 Zrotation Xrotation Yrotation
                  End Site
                  {
                    OFFSET -1.69225 -0.51767 -0.607171
                  }
                }
              }
            }
          }
        }
      }
      JOINT lCollar
      {
        OFFSET 2.68224 19.2634 -4.8768
        CHANNELS 3 Zrotation Xrotation Yrotation
        JOINT lShldr
        {
          OFFSET 8.77824 -1.95073 1.46304
          CHANNELS 3 Zrotation Xrotation Yrotation
          JOINT lForeArm
          {
            OFFSET 28.1742 -1.7115 0.48768
            CHANNELS 3 Zrotation Xrotation Yrotation
            JOINT lHand
            {
              OFFSET 22.5879 0.773209 7.07136
              CHANNELS 3 Zrotation Xrotation Yrotation
              JOINT lThumb1
              {
                OFFSET 1.2192 -0.487915 3.41376
                CHANNELS 3 Zrotation Xrotation Yrotation
                JOINT lThumb2
                {
                  OFFSET 3.37035 -0.52449 3.41376
                  CHANNELS 3 Zrotation Xrotation Yrotation
                  End Site
                  {
                    OFFSET 1.78271 -1.18214 1.43049
                  }
                }
              }
              JOINT lIndex1
              {
                OFFSET 7.75947 0.938293 5.60832
                CHANNELS 3 Zrotation Xrotation Yrotation
                JOINT lIndex2
                {
                  OFFSET 2.54057 -0.884171 1.56538
                  CHANNELS 3 Zrotation Xrotation Yrotation
                  End Site
                  {
                    OFFSET 1.62519 -0.234802 1.16502
                  }
                }
              }
              JOINT lMid1
              {
                OFFSET 8.24714 1.18213 3.41376
                CHANNELS 3 Zrotation Xrotation Yrotation
                JOINT lMid2
                {
                  OFFSET 3.10165 -0.590103 1.0647
                  CHANNELS 3 Zrotation Xrotation Yrotation
                  End Site
                  {
                    OFFSET 2.48547 -0.328903 0.83742
                  }
                }
              }
              JOINT lRing1
              {
                OFFSET 8.82822 0.546677 1.51678
                CHANNELS 3 Zrotation Xrotation Yrotation
                JOINT lRing2
                {
                  OFFSET 2.60934 -0.819778 -0.0198488
                  CHANNELS 3 Zrotation Xrotation Yrotation
                  End Site
                  {
                    OFFSET 2.33842 -0.294052 0.168128
                  }
                }
              }
              JOINT lPinky1
              {
                OFFSET 8.27202 -0.0477905 -0.4584
                CHANNELS 3 Zrotation Xrotation Yrotation
                JOINT lPinky2
                {
                  OFFSET 1.82734 -0.647385 -0.700984
                  CHANNELS 3 Zrotation Xrotation Yrotation
                  End Site
                  {
                    OFFSET 1.69225 -0.51767 -0.607171
                  }
                }
              }
            }
          }
        }
      }
    }
  }
  JOINT rButtock
  {
    OFFSET -8.77824 4.35084 1.2192
    CHANNELS 3 Zrotation Xrotation Yrotation
    JOINT rThigh
    {
      OFFSET 0.0 -1.70687 -2.19456
      CHANNELS 3 Zrotation Xrotation Yrotation
      JOINT rShin
      {
        OFFSET 0.0 -36.8199 0.73152
        CHANNELS 3 Zrotation Xrotation Yrotation
        JOINT rFoot
        {
          OFFSET 0.73152 -45.1104 -5.12064
          CHANNELS 3 Zrotation Xrotation Yrotation
          End Site
          {
            OFFSET -1.1221 -3.69964 12.103
          }
        }
      }
    }
  }
  JOINT lButtock
  {
    OFFSET 8.77824 4.35084 1.2192
    CHANNELS 3 Zrotation Xrotation Yrotation
    JOINT lThigh
    {
      OFFSET 0.0 -1.70687 -2.19456
      CHANNELS 3 Zrotation Xrotation Yrotation
      JOINT lShin
      {
        OFFSET 0.0 -36.8199 0.73152
        CHANNELS 3 Zrotation Xrotation Yrotation
        JOINT lFoot
        {
          OFFSET -0.73152 -45.1104 -5.12064
          CHANNELS 3 Zrotation Xrotation Yrotation
          End Site
          {
            OFFSET 1.1221 -3.69964 12.103
          }
        }
      }
    }
  }
}
MOTION
Frames: 5
Frame Time: 0.00833333
9.72756 83.694 -60.5727 3.5153 3.7733 1.5514 -5.0605 2.74704 -3.46297 5.05015 -3.95667 -0.839124 7.27042 -4.02609 2.52965 -12.2925 1.01689 2.61416 -0.0 0.0 0.0 -0.0 0.0 0.0 -8.07468e-15 -3.85522e-14 -4.19933e-14 73.2383 11.9029 -6.36858 -13.7099 -6.72281 24.9723 -0.0292983 -4.88012 -0.687536 1.03879e-10 -2.85181e-10 4.04271e-10 1.78411e-10 -4.9158e-10 6.99598e-10 1.03883e-10 -2.85177e-10 4.04264e-10 7.73091 5.47488 0.417314 1.0388e-10 -2.8518e-10 4.04271e-10 2.90554 0.965183 0.102902 1.03891e-10 -2.85179e-10 4.04268e-10 10.2786 0.731801 0.0259123 1.03877e-10 -2.8518e-10 4.0428e-10 2.22167 -0.733487 -0.20892 -8.1268e-15 -3.85514e-14 -4.22417e-14 -78.4019 30.183 -1.93996 14.2465 -7.15507 -26.0514 0.087013 -8.3849 1.18699 9.99585e-11 -3.87116e-10 -1.03311e-10 1.71805e-10 -6.716e-10 -1.77275e-10 9.99533e-11 -3.87112e-10 -1.03289e-10 -7.73091 5.47488 -0.417314 9.99605e-11 -3.87116e-10 -1.03308e-10 -2.90554 0.965183 -0.102902 9.99533e-11 -3.87115e-10 -1.03304e-10 -10.2786 0.731801 -0.0259123 9.99597e-11 -3.87113e-10 -1.03304e-10 -2.22167 -0.733487 0.20892 -2.03217e-16 0.0 -3.88251e-19 -3.44123 -41.6498 12.5434 -0.329859 39.5438 0.698059 -2.66818 -3.17996 -12.7631 2.03217e-16 0.0 3.88251e-19 -13.3748 -5.40575 -10.6786 0.0271786 21.964 -0.540468 -0.652459 -11.5485 -5.15217
9.82489 83.726 -60.0375 3.6758 4.1751 1.6954 -5.18685 2.57851 -3.83806 5.13364 -3.86177 -0.941716 7.30804 -3.93734 2.57164 -12.3025 0.903335 2.68324 -0.0 0.0 0.0 -0.0 0.0 0.0 -9.90683e-14 -3.44238e-14 -8.27282e-14 73.2889 11.9465 -6.71053 -13.6935 -6.70978 24.9396 -0.03055 -4.98495 -0.702378 9.68121e-10 -9.61241e-10 1.95955e-10 1.67267e-09 -1.66177e-09 3.41091e-10 9.68124e-10 -9.61238e-10 1.95948e-10 7.73091 5.47488 0.417314 9.68121e-10 -9.6124e-10 1.95955e-10 2.90554 0.965183 0.102902 9.68133e-10 -9.6124e-10 1.95952e-10 10.2786 0.731801 0.0259123 9.68119e-10 -9.6124e-10 1.95963e-10 2.22167 -0.733487 -0.20892 -9.91083e-14 -3.44236e-14 -8.29806e-14 -78.1593 30.6425 -2.57593 14.3142 -7.21093 -26.1882 0.0915082 -8.59829 1.21765 8.02079e-10 6.94662e-10 1.27098e-10 1.38273e-09 1.19709e-09 2.25408e-10 8.02074e-10 6.94666e-10 1.27119e-10 -7.73091 5.47488 -0.417314 8.02081e-10 6.94664e-10 1.271e-10 -2.90554 0.965183 -0.102902 8.02075e-10 6.94665e-10 1.27103e-10 -10.2786 0.731801 -0.0259123 8.02081e-10 6.94667e-10 1.27102e-10 -2.22167 -0.733487 0.20892 -2.03217e-16 0.0 -3.88251e-19 -3.12469 -41.8076 12.5347 -0.297276 37.7426 0.64737 -2.56762 -3.20071 -12.3155 2.03217e-16 0.0 3.88251e-19 -13.3302 -4.71945 -10.5728 0.023718 21.1672 -0.530171 -0.770668 -11.5568 -5.65367
9.92664 83.7541 -59.5026 3.8468 4.5674 1.8512 -5.32252 2.39277 -4.21254 5.20851 -3.76404 -1.04485 7.32161 -3.82884 2.60796 -12.2795 0.763859 2.74876 -0.0 0.0 0.0 -0.0 0.0 0.0 -2.24618e-13 -2.56181e-14 -1.42401e-13 73.3574 12.027 -7.0735 -13.6871 -6.70469 24.9267 -0.0320758 -5.10842 -0.719866 2.20521e-09 -2.00713e-09 -1.70164e-10 3.8118e-09 -3.47256e-09 -2.89625e-10 2.20522e-09 -2.00713e-09 -1.70172e-10 7.73091 5.47488 0.417314 2.20521e-09 -2.00713e-09 -1.70165e-10 2.90554 0.965183 0.102902 2.20522e-09 -2.00713e-09 -1.70168e-10 10.2786 0.731801 0.0259123 2.20521e-09 -2.00713e-09 -1.70159e-10 2.22167 -0.733487 -0.20892 -2.24629e-13 -2.56197e-14 -1.42644e-13 -77.915 31.117 -3.20206 14.3944 -7.27729 -26.3511 0.0963122 -8.82027 1.24958 1.869e-09 2.35187e-09 4.41066e-10 3.22349e-09 4.06053e-09 7.7462e-10 1.869e-09 2.35187e-09 4.41084e-10 -7.73091 5.47488 -0.417314 1.86901e-09 2.35187e-09 4.41067e-10 -2.90554 0.965183 -0.102902 1.869e-09 2.35187e-09 4.41069e-10 -10.2786 0.731801 -0.0259123 1.86901e-09 2.35188e-09 4.41064e-10 -2.22167 -0.733487 0.20892 -2.03217e-16 0.0 -3.88251e-19 -2.89605 -42.0066 12.2719 -0.269034 36.0293 0.60004 -2.46037 -3.23355 -11.7905 2.03217e-16 0.0 3.88251e-19 -13.3014 -4.02194 -10.473 0.0205763 20.3283 -0.518862 -0.88007 -11.5388 -6.12984
10.0329 83.7781 -58.9677 4.0273 4.9579 2.0137 -5.46149 2.19991 -4.58898 5.27779 -3.66767 -1.14894 7.32954 -3.72072 2.64309 -12.2557 0.626289 2.81401 -0.0 0.0 0.0 -0.0 0.0 0.0 -3.4117e-13 -1.51748e-14 -1.99765e-13 73.4361 12.1197 -7.45366 -13.6866 -6.70432 24.9257 -0.0336477 -5.23063 -0.737184 3.34666e-09 -3.0081e-09 -5.50493e-10 5.78559e-09 -5.20579e-09 -9.45141e-10 3.34666e-09 -3.00809e-09 -5.50502e-10 7.73091 5.47488 0.417314 3.34666e-09 -3.00809e-09 -5.50493e-10 2.90554 0.965183 0.102902 3.34667e-09 -3.00809e-09 -5.50497e-10 10.2786 0.731801 0.0259123 3.34666e-09 -3.00809e-09 -5.50491e-10 2.22167 -0.733487 -0.20892 -3.41154e-13 -1.51789e-14 -1.99988e-13 -77.6702 31.5999 -3.8223 14.4826 -7.35054 -26.5304 0.101072 -9.03279 1.2802 2.90083e-09 3.9657e-09 7.27892e-10 5.00402e-09 6.8494e-09 1.27662e-09 2.90083e-09 3.9657e-09 7.27907e-10 -7.73091 5.47488 -0.417314 2.90084e-09 3.96571e-09 7.27892e-10 -2.90554 0.965183 -0.102902 2.90083e-09 3.96571e-09 7.27894e-10 -10.2786 0.731801 -0.0259123 2.90084e-09 3.96571e-09 7.27886e-10 -2.22167 -0.733487 0.20892 -2.03217e-16 0.0 -3.88251e-19 -2.72687 -42.2444 11.8046 -0.245271 34.4392 0.557307 -2.35131 -3.2864 -11.204 2.03217e-16 0.0 3.88251e-19 -13.2833 -3.3162 -10.3822 0.0176011 19.4683 -0.507634 -0.980841 -11.5072 -6.58007
10.1391 83.797 -58.4302 4.1994 5.3462 2.1813 -5.59754 2.00998 -4.96998 5.3445 -3.57689 -1.2544 7.35024 -3.63313 2.68149 -12.2636 0.518445 2.88229 -0.0 0.0 0.0 -0.0 0.0 0.0 -4.05173e-13 -6.13359e-15 -2.33572e-13 73.5163 12.2002 -7.847 -13.6881 -6.70542 24.9285 -0.0349913 -5.33165 -0.751506 3.92396e-09 -3.54939e-09 -8.01436e-10 6.78386e-09 -6.1433e-09 -1.37805e-09 3.92396e-09 -3.54938e-09 -8.01446e-10 7.73091 5.47488 0.417314 3.92396e-09 -3.54938e-09 -8.01436e-10 2.90554 0.965183 0.102902 3.92397e-09 -3.54938e-09 -8.01439e-10 10.2786 0.731801 0.0259123 3.92396e-09 -3.54938e-09 -8.01436e-10 2.22167 -0.733487 -0.20892 -4.0515e-13 -6.14058e-15 -2.33771e-13 -77.4265 32.0844 -4.44052 14.5741 -7.42717 -26.7165 0.105359 -9.21781 1.30689 3.49768e-09 4.91736e-09 8.76879e-10 6.03428e-09 8.49437e-09 1.53765e-09 3.49767e-09 4.91736e-09 8.76892e-10 -7.73091 5.47488 -0.417314 3.49768e-09 4.91736e-09 8.76879e-10 -2.90554 0.965183 -0.102902 3.49767e-09 4.91736e-09 8.7688e-10 -10.2786 0.731801 -0.0259123 3.49768e-09 4.91736e-09 8.76869e-10 -2.22167 -0.733487 0.20892 -2.03217e-16 0.0 -3.88251e-19 -2.58868 -42.5179 11.1824 -0.225884 33.0075 0.520284 -2.24493 -3.36731 -10.5716 2.03217e-16 0.0 3.88251e-19 -13.2703 -2.60526 -10.3034 0.0145552 18.608 -0.497539 -1.0736 -11.4745 -7.00386
